<svg viewBox="0 0 24 24" fill="currentColor" xmlns="http://www.w3.org/2000/svg">
  <path d="M20.277 1.408C17.846.59 14.935.502 11.95.77 5.093 1.383.5 6.467.5 12.616c0 2.22.618 4.605 1.768 6.45-1.144 4.158-.225 4.394 3.974 3.328 1.936 1.05 4.015 1.503 6.096 1.353 6.858-.492 11.164-5.698 11.164-11.458 0-4.66-3.82-9.17-11.225-10.88zm-2.88 15.116c-.23.755-1.076 1.135-1.63.856-.563-.284-4.882-2.316-6.666-6.38-1.554-3.54-.537-4.928 1.48-5.748.423-.172.825-.264.914.032.2.664.963 3.033 1.053 3.268.087.235-.083.535-.353.774-.21.185-.453.308-.432.614.038.552 1.37 3.28 3.55 4.417.292.152.54.02.736-.21.268-.313.73-.837.996-.807.27.03 2.503 1.252 2.662 1.536.16.284.148.81-.31 1.648zm.804-5.06c-.168-.035-.316-.16-.327-.33-.092-1.396-.78-2.616-1.843-3.39-.145-.106-.182-.303-.082-.455.103-.15.305-.187.458-.083 1.263.918 2.077 2.365 2.183 4.018.01.18-.12.333-.3.344h-.09zm2.46 0c-.173-.024-.303-.173-.3-.348-.063-2.67-1.442-5.045-3.552-6.577-.148-.107-.18-.31-.073-.457.106-.15.31-.18.457-.074 2.32 1.684 3.834 4.293 3.905 7.226.004.184-.14.336-.324.34h-.114z"/>
</svg>
